<svg width="30" height="30" viewBox="0 0 30 30" fill="currentColor" xmlns="http://www.w3.org/2000/svg">
<path d="M30 5.84684C28.8968 6.32792 27.7116 6.65297 26.4657 6.79989C27.7513 6.0429 28.713 4.85148 29.1716 3.44795C27.9638 4.15395 26.6419 4.6509 25.2634 4.91719C24.3364 3.94315 23.1085 3.29755 21.7704 3.0806C20.4324 2.86366 19.059 3.08752 17.8634 3.71742C16.6679 4.34732 15.7171 5.34803 15.1588 6.56417C14.6004 7.78031 14.4656 9.14385 14.7754 10.4431C12.328 10.3222 9.93389 9.69618 7.74829 8.60576C5.5627 7.51535 3.63451 5.98487 2.08888 4.11366C1.56038 5.0108 1.2565 6.05097 1.2565 7.15875C1.25591 8.15601 1.50546 9.13799 1.98302 10.0176C2.46057 10.8972 3.15136 11.6471 3.9941 12.201C3.01675 12.1704 2.06096 11.9105 1.20629 11.443V11.521C1.20619 12.9197 1.69783 14.2753 2.59779 15.3579C3.49775 16.4405 4.7506 17.1833 6.14375 17.4603C5.2371 17.7018 4.28654 17.7374 3.36387 17.5644C3.75693 18.7678 4.52259 19.8203 5.55364 20.5742C6.5847 21.3282 7.82954 21.7461 9.11389 21.7692C6.93363 23.4535 4.24102 24.3672 1.46922 24.3632C0.978219 24.3633 0.487637 24.3351 0 24.2786C2.81354 26.0589 6.08871 27.0037 9.43363 27C20.7566 27 26.9466 17.7711 26.9466 9.76698C26.9466 9.50694 26.94 9.24429 26.9281 8.98425C28.1322 8.12738 29.1715 7.0663 29.9974 5.85074L30 5.84684Z" fill="currentColor"/>
</svg>
