<svg width="30" height="30" viewBox="0 0 30 30" fill="currentColor" xmlns="http://www.w3.org/2000/svg">
<path d="M30 10.5784V22.3654C30 23.462 29.5061 24.5136 28.6271 25.289C27.748 26.0644 26.5557 26.5 25.3125 26.5H4.6875C3.4443 26.5 2.25201 26.0644 1.37294 25.289C0.49386 24.5136 0 23.462 0 22.3654V10.5784L14.5238 18.1167C14.668 18.1917 14.8325 18.2313 15 18.2313C15.1675 18.2313 15.332 18.1917 15.4762 18.1167L30 10.5784ZM25.3125 5C26.4659 4.99984 27.5789 5.37477 28.4385 6.05307C29.2981 6.73137 29.8441 7.66541 29.9719 8.6765L15 16.4446L0.0281252 8.6765C0.155922 7.66541 0.701857 6.73137 1.56149 6.05307C2.42112 5.37477 3.5341 4.99984 4.6875 5H25.3125Z" fill="currentColor"/>
</svg>
