<svg width="30" height="30" viewBox="0 0 30 30" fill="none" xmlns="http://www.w3.org/2000/svg">
<path d="M15 22.8438L9.81251 25.9688C9.58335 26.1146 9.34376 26.1771 9.09376 26.1562C8.84376 26.1354 8.62501 26.0521 8.43751 25.9063C8.25001 25.7604 8.10418 25.5779 8.00001 25.3588C7.89585 25.1396 7.87501 24.895 7.93751 24.625L9.31251 18.7188L4.71876 14.75C4.51043 14.5625 4.38043 14.3488 4.32876 14.1087C4.2771 13.8687 4.29251 13.6346 4.37501 13.4063C4.45835 13.1771 4.58335 12.9896 4.75001 12.8438C4.91668 12.6979 5.14585 12.6042 5.43751 12.5625L11.5 12.0312L13.8438 6.46875C13.9479 6.21875 14.1096 6.03125 14.3288 5.90625C14.5479 5.78125 14.7717 5.71875 15 5.71875C15.2292 5.71875 15.4529 5.78125 15.6713 5.90625C15.8896 6.03125 16.0513 6.21875 16.1563 6.46875L18.5 12.0312L24.5625 12.5625C24.8542 12.6042 25.0833 12.6979 25.25 12.8438C25.4167 12.9896 25.5417 13.1771 25.625 13.4063C25.7083 13.6354 25.7242 13.87 25.6725 14.11C25.6208 14.35 25.4904 14.5633 25.2813 14.75L20.6875 18.7188L22.0625 24.625C22.125 24.8958 22.1042 25.1408 22 25.36C21.8958 25.5792 21.75 25.7613 21.5625 25.9063C21.375 26.0521 21.1563 26.1354 20.9063 26.1562C20.6563 26.1771 20.4167 26.1146 20.1875 25.9688L15 22.8438Z" fill="#FFB340"/>
</svg>
